# AST/ASF file generated using VICON BodyLanguage
# -----------------------------------------------
:version 1.10
:name VICON
:units
  mass 1.0
  length 0.45
  angle deg
:documentation
   .ast/.asf automatically generated from VICON data using
   VICON BodyBuilder and BodyLanguage model FoxedUp or BRILLIANT.MOD
:root
   order TX TY TZ RX RY RZ
   axis XYZ
   position 0 0 0  
   orientation 0 0 0 
:bonedata
  begin
     id 1 
     name lhipjoint
     direction 0.584852 -0.759097 0.285867 
     length 2.43633 
     axis 0 0 0  XYZ
  end
  begin
     id 2 
     name lfemur
     direction 0.34202 -0.939693 0  
     length 7.14704  
     axis 0 0 20  XYZ
    dof rx ry rz
    limits (-160.0 20.0)
           (-70.0 70.0)
           (-60.0 70.0)
  end
  begin
     id 3 
     name ltibia
     direction 0.342022 -0.939692 0   
     length 7.68483   
     axis 0 0 20   XYZ
    dof rx
    limits (-10.0 170.0)
  end
  begin
     id 4 
     name lfoot
     direction 0.0999605 -0.274639 0.956337   
     length 2.40452   
     axis -90 7.62852e-016 20   XYZ
    dof rx rz
    limits (-45.0 90.0)
           (-70.0 20.0)
  end
  begin
     id 5 
     name ltoes
     direction 1.53468e-011 -4.21881e-011 1   
     length 1.19837   
     axis -90 7.62852e-016 20   XYZ
    dof rx
    limits (-90.0 20.0)
  end
  begin
     id 6 
     name rhipjoint
     direction -0.569886 -0.769002 0.289597   
     length 2.40495  
     axis 0 0 0  XYZ 
  end
  begin
     id 7 
     name rfemur
     direction -0.34202 -0.939693 0   
     length 7.45086   
     axis 0 0 -20   XYZ
    dof rx ry rz
    limits (-160.0 20.0)
           (-70.0 70.0)
           (-70.0 60.0)
  end
  begin
     id 8 
     name rtibia
     direction -0.34202 -0.939693 0   
     length 7.76831   
     axis 0 0 -20   XYZ
    dof rx
    limits (-10.0 170.0)
 end
 begin
     id 9 
     name rfoot
     direction -0.0798572 -0.219406 0.97236   
     length 2.35911  
     axis -90 -7.62852e-016 -20   XYZ
    dof rx rz
    limits (-45.0 90.0)
           (-20.0 70.0)
  end
  begin
     id 10 
     name rtoes
     direction -1.53469e-011 -4.21728e-011 1   
     length 1.18261   
     axis -90 -7.62852e-016 -20   XYZ
    dof rx
    limits (-90.0 20.0)
  end
  begin
     id 11 
     name lowerback
     direction 0.0242088 0.999437 0.0232389   
     length 2.1561   
     axis 0 0 0   XYZ
    dof rx ry rz
    limits (-20.0 45.0)
           (-30.0 30.0)
           (-30.0 30.0)
  end
  begin
     id 12 
     name upperback
     direction -0.0356893 0.999013 -0.0264323   
     length 2.14431   
     axis 0 0 0   XYZ
    dof rx ry rz
    limits (-20.0 45.0)
           (-30.0 30.0)
           (-30.0 30.0)
  end
  begin
     id 13 
     name thorax
     direction -0.0472163 0.998194 -0.0371284   
     length 2.16169   
     axis 0 0 0   XYZ
    dof rx ry rz
    limits (-20.0 45.0)
           (-30.0 30.0)
           (-30.0 30.0)
  end
  begin
     id 14 
     name lowerneck
     direction 0.00863244 0.999921 0.00911972   
     length 1.58651   
     axis 0 0 0   XYZ
    dof rx ry rz
    limits (-20.0 45.0)
           (-30.0 30.0)
           (-30.0 30.0)
  end
  begin
     id 15 
     name upperneck
     direction 0.149523 0.979068 -0.138086   
     length 1.57486   
     axis 0 0 0   XYZ
    dof rx ry rz
    limits (-20.0 45.0)
           (-30.0 30.0)
           (-30.0 30.0)
  end
  begin
     id 16
     name head
     direction 0.0445219 0.997708 -0.0509576  
     length 1.6019  
     axis 0 0 0   XYZ
    dof rx ry rz
    limits (-20.0 45.0)
           (-30.0 30.0)
           (-30.0 30.0)
  end
  begin
     id 17 
     name lclavicle
     direction 0.911271 0.381667 -0.154644  
     length 3.80848  
     axis 0 0 0   XYZ
    dof ry rz
    limits (-20.0 10.0)
           (0.0 20.0)
  end
  begin
     id 18 
     name lhumerus
     direction 1 -4.49003e-011 2.1308e-027   
     length 5.19069   
     axis 180 -30 -90   XYZ
    dof rx ry rz
    limits (-60.0 90.0)
           (-90.0 90.0)
           (-90.0 90.0)
  end
  begin
     id 19
     name lradius
     direction 1 -4.48914e-011 4.01554e-027   
     length 3.30016   
     axis 180 -30 -90   XYZ
    dof rx
    limits (-10.0 170.0)
  end
  begin
     id 20
     name lwrist
     direction 1 -4.49003e-011 1.1934e-026   
     length 1.65008   
     axis -8.46377e-015 90 90   XYZ
    dof ry
    limits (-180.0 0.0)
 end
  begin
     id 21 
     name lhand
     direction 1 -4.49034e-011 2.38659e-026   
     length 0.707698   
     axis -1.52313e-014 90 90   XYZ
    dof rx rz
    limits (-90.0 90.0)
           (-45.0 45.0)
  end
  begin
     id 22 
     name lfingers
     direction 1 -4.48691e-011 4.77775e-026   
     length 0.570564   
     axis -3.04623e-014 90 90   XYZ
    dof rx
    limits (0.0 90.0)
  end
  begin
     id 23
     name lthumb
     direction 0.707107 -6.34832e-011 0.707107   
     length 0.819219   
     axis -90 45 -1.62303e-014   XYZ
    dof rx rz
    limits (-45.0 45.0)
           (-45.0 45.0)
  end
  begin
     id 24 
     name rclavicle
     direction -0.815579 0.573708 -0.0754329   
     length 3.54371  
     axis 0 0 0   XYZ 
    dof ry rz
    limits (-10.0 20.0)
           (-20.0 0.0)
  end
  begin
     id 25 
     name rhumerus
     direction -1 -4.48956e-011 3.05351e-028  
     length 5.23924   
     axis 180 30 90   XYZ
    dof rx ry rz
    limits (-90.0 60.0)
           (-90.0 90.0)
           (-90.0 90.0)
  end
  begin
     id 26 
     name rradius
     direction -1 -4.49013e-011 3.53849e-027   
     length 3.32953   
     axis 180 30 90   XYZ
    dof rx
    limits (-10.0 170.0)
  end
  begin
     id 27 
     name rwrist
     direction -1 -4.48901e-011 1.19374e-026   
     length 1.66477   
     axis -8.46377e-015 -90 -90   XYZ
    dof ry
    limits (-180.0 0.0)
  end
  begin
     id 28
     name rhand
     direction -1 -4.48877e-011 2.38764e-026   
     length 0.607414   
     axis -1.52313e-014 -90 -90   XYZ
    dof rx rz
    limits (-90.0 90.0)
           (-45.0 45.0)
  end
  begin
     id 29
     name rfingers
     direction -1 -4.48882e-011 4.77521e-026   
     length 0.489712   
     axis -3.04623e-014 -90 -90   XYZ
    dof rx
    limits (0.0 90.0)
  end
  begin
     id 30
     name rthumb
     direction -0.707107 -6.34974e-011 0.707107   
     length 0.703132   
     axis -90 -45 1.62303e-014   XYZ
    dof rx rz
    limits (-45.0 45.0)
           (-45.0 45.0)
  end
:hierarchy
  begin
    root lhipjoint rhipjoint lowerback
    lhipjoint lfemur
    lfemur ltibia
    ltibia lfoot
    lfoot ltoes
    rhipjoint rfemur
    rfemur rtibia
    rtibia rfoot
    rfoot rtoes
    lowerback upperback
    upperback thorax
    thorax lowerneck lclavicle rclavicle
    lowerneck upperneck
    upperneck head
    lclavicle lhumerus
    lhumerus lradius
    lradius lwrist
    lwrist lhand lthumb
    lhand lfingers
    rclavicle rhumerus
    rhumerus rradius
    rradius rwrist
    rwrist rhand rthumb
    rhand rfingers
  end

#!OML:ASF E:\VariousWalksJay\Project 1\Capture day 1\Session 1\Actor2.ASF
:FULLY-SPECIFIED
:DEGREES
226
root 25.4103 15.608 -26.3858 -4.77647 -17.9968 3.6004
lowerback 14.5962 -3.05349 -0.886953
upperback 15.2329 -4.22862 -2.81499
thorax 8.10217 -2.13856 -2.22486
lowerneck 10.0066 -1.83838 -1.39849
upperneck -12.3143 -1.29077 10.7369
head -5.27208 -1.34602 3.69976
rclavicle -2.18663e-014 1.63003e-014
rhumerus -43.9354 24.293 -88.6154
rradius 61.3608
rwrist 4.28128
rhand -8.09167 -12.312
rfingers 7.12502
rthumb 17.8206 -41.5155
lclavicle -2.18663e-014 1.63003e-014
lhumerus 14.3639 -28.3108 67.1875
lradius 75.1073
lwrist 84.2201
lhand -28.5989 5.58288
lfingers 7.12502
lthumb -1.96429 35.5536
rfemur -48.0312 2.80991 6.66869
rtibia 15.0674
rfoot -24.8484 -21.4951
rtoes -25.3668
lfemur -19.6469 13.9929 -32.4004
ltibia 61.2567
lfoot -36.8276 19.9271
ltoes -9.50063
227
root 25.3869 15.5888 -26.3158 -4.72779 -17.9503 3.56091
lowerback 14.3184 -3.04426 -0.770296
upperback 15.1589 -4.20044 -2.82382
thorax 8.15702 -2.11055 -2.31336
lowerneck 10.1296 -1.88359 -1.62261
upperneck -12.1667 -1.37435 10.908
head -5.23816 -1.38646 3.79607
rclavicle -1.31198e-014 2.70347e-014
rhumerus -43.9985 24.2236 -88.6608
rradius 61.4557
rwrist 4.2149
rhand -8.09773 -12.3679
rfingers 7.12502
rthumb 17.8148 -41.5719
lclavicle -1.31198e-014 2.70347e-014
lhumerus 14.1442 -28.4186 67.2663
lradius 75.1411
lwrist 84.2516
lhand -28.7197 5.55739
lfingers 7.12502
lthumb -2.081 35.527
rfemur -47.3934 2.8697 6.70187
rtibia 14.718
rfoot -24.8656 -21.558
rtoes -25.4433
lfemur -19.5304 14.2045 -32.2273
ltibia 61.6331
lfoot -36.9257 19.6284
ltoes -10.3172
228
root 25.3626 15.5698 -26.2469 -4.6864 -17.9001 3.53616
lowerback 14.0741 -3.02743 -0.669919
upperback 15.0991 -4.16424 -2.84127
thorax 8.2119 -2.07967 -2.40142
lowerneck 10.2085 -1.93681 -1.80074
upperneck -12.0282 -1.46353 11.0707
head -5.19944 -1.43064 3.88185
rclavicle -3.06128e-014 -4.77083e-015
rhumerus -44.0303 24.14 -88.7017
rradius 61.5549
rwrist 4.15689
rhand -8.08239 -12.4559
rfingers 7.12502
rthumb 17.8296 -41.6585
lclavicle -3.06128e-014 -4.77083e-015
lhumerus 13.9678 -28.5388 67.3065
lradius 75.1894
lwrist 84.2834
lhand -28.8395 5.53681
lfingers 7.12502
lthumb -2.19671 35.5053
rfemur -46.7742 2.88844 6.76864
rtibia 14.4284
rfoot -24.9104 -21.5876
rtoes -25.4874
lfemur -19.4161 14.4014 -32.0594
ltibia 62.0207
lfoot -37.008 19.3228
ltoes -11.158
229
root 25.337 15.5507 -26.1792 -4.64276 -17.8661 3.52697
lowerback 13.8509 -2.99601 -0.591669
upperback 15.0531 -4.11094 -2.86784
thorax 8.27346 -2.04182 -2.48765
lowerneck 10.2452 -1.99559 -1.92716
upperneck -11.9079 -1.55314 11.2239
head -5.1596 -1.47644 3.95557
rclavicle 1.27222e-014 -7.95139e-016
rhumerus -44.0243 24.0389 -88.7359
rradius 61.6519
rwrist 4.12185
rhand -8.03471 -12.5931
rfingers 7.12502
rthumb 17.8754 -41.7916
lclavicle 1.27222e-014 -7.95139e-016
lhumerus 13.8449 -28.6694 67.3011
lradius 75.2459
lwrist 84.3166
lhand -28.9553 5.51112
lfingers 7.12502
lthumb -2.30852 35.4784
rfemur -46.1969 2.86983 6.87998
rtibia 14.2087
rfoot -24.9603 -21.5792
rtoes -25.5448
lfemur -19.3209 14.5995 -31.9005
ltibia 62.4186
lfoot -37.0727 19.021
ltoes -12.0146
230
root 25.3105 15.5316 -26.1127 -4.59952 -17.8252 3.54018
lowerback 13.6711 -2.96303 -0.557023
upperback 14.9998 -4.05963 -2.89095
thorax 8.30686 -2.00968 -2.54261
lowerneck 10.2854 -2.04727 -2.04344
upperneck -11.8099 -1.63075 11.3703
head -5.12802 -1.51721 4.02522
rclavicle -9.93923e-014 5.48646e-014
rhumerus -44.0279 23.9503 -88.7579
rradius 61.7516
rwrist 4.11662
rhand -8.00677 -12.6772
rfingers 7.12502
rthumb 17.9023 -41.8732
lclavicle -9.93923e-014 5.48646e-014
lhumerus 13.7189 -28.792 67.301
lradius 75.3085
lwrist 84.3445
lhand -29.0677 5.48034
lfingers 7.12502
lthumb -2.41711 35.4464
rfemur -45.6611 2.81629 7.00172
rtibia 14.0771
rfoot -25.0548 -21.5458
rtoes -25.5586
lfemur -19.24 14.7767 -31.7639
ltibia 62.821
lfoot -37.1291 18.723
ltoes -12.8343
231
root 25.2825 15.5124 -26.0474 -4.55376 -17.789 3.57447
lowerback 13.5202 -2.92289 -0.559674
upperback 14.9471 -4.00194 -2.9157
thorax 8.328 -1.97801 -2.57724
lowerneck 10.3107 -2.09592 -2.13192
upperneck -11.7296 -1.70038 11.5047
head -5.10026 -1.55472 4.08596
rclavicle 1.23246e-014 3.53837e-014
rhumerus -44.0225 23.8551 -88.7693
rradius 61.8469
rwrist 4.13279
rhand -7.98505 -12.7336
rfingers 7.12502
rthumb 17.9232 -41.9277
lclavicle 1.23246e-014 3.53837e-014
lhumerus 13.6139 -28.9115 67.2861
lradius 75.3698
lwrist 84.3694
lhand -29.178 5.43424
lfingers 7.12502
lthumb -2.52359 35.3991
rfemur -45.1778 2.74909 7.12833
rtibia 14.0428
rfoot -25.1638 -21.5108
rtoes -25.6012
lfemur -19.1767 14.9459 -31.6488
ltibia 63.2249
lfoot -37.1825 18.4384
ltoes -13.6061
232
root 25.2537 15.4935 -25.983 -4.50267 -17.7187 3.62678
lowerback 13.3885 -2.89075 -0.584372
upperback 14.8993 -3.95625 -2.94158
thorax 8.34586 -1.95439 -2.5991
lowerneck 10.3241 -2.14238 -2.19997
upperneck -11.6715 -1.7633 11.631
head -5.07801 -1.58975 4.14055
rclavicle -7.4743e-014 2.26615e-014
rhumerus -44.0065 23.748 -88.7684
rradius 61.9348
rwrist 4.15915
rhand -7.96217 -12.7789
rfingers 7.12502
rthumb 17.9452 -41.971
lclavicle -7.4743e-014 2.26615e-014
lhumerus 13.537 -29.0273 67.2563
lradius 75.425
lwrist 84.3865
lhand -29.2825 5.41857
lfingers 7.12502
lthumb -2.62455 35.3822
rfemur -44.7359 2.67582 7.2168
rtibia 14.1125
rfoot -25.3171 -21.4964
rtoes -25.6059
lfemur -19.1268 15.069 -31.561
ltibia 63.6241
lfoot -37.2302 18.1794
ltoes -14.3227
233
root 25.2241 15.4747 -25.9194 -4.43878 -17.64 3.69608
lowerback 13.2597 -2.86014 -0.618584
upperback 14.8589 -3.91268 -2.97646
thorax 8.37071 -1.93211 -2.62537
lowerneck 10.3244 -2.18731 -2.24687
upperneck -11.6377 -1.81923 11.7562
head -5.06171 -1.62272 4.19113
rclavicle -3.97569e-015 3.18055e-014
rhumerus -43.9742 23.6179 -88.7643
rradius 62.0163
rwrist 4.1898
rhand -7.9633 -12.7836
rfingers 7.12502
rthumb 17.9442 -41.9758
lclavicle -3.97569e-015 3.18055e-014
lhumerus 13.4995 -29.1416 67.1949
lradius 75.4741
lwrist 84.4021
lhand -29.3895 5.36999
lfingers 7.12502
lthumb -2.72785 35.3323
rfemur -44.3497 2.60588 7.27872
rtibia 14.2847
rfoot -25.5003 -21.4701
rtoes -25.5636
lfemur -19.1013 15.1716 -31.5011
ltibia 64.017
lfoot -37.2729 17.9516
ltoes -14.9773
234
root 25.1938 15.4561 -25.8561 -4.36697 -17.5563 3.77771
lowerback 13.1416 -2.83529 -0.666539
upperback 14.8193 -3.87763 -3.01309
thorax 8.39131 -1.91538 -2.6447
lowerneck 10.3164 -2.2264 -2.28902
upperneck -11.6124 -1.86745 11.8691
head -5.04727 -1.6513 4.23648
rclavicle 1.86858e-014 1.82882e-014
rhumerus -43.9471 23.4868 -88.7544
rradius 62.1018
rwrist 4.21478
rhand -7.9608 -12.769
rfingers 7.12502
rthumb 17.9466 -41.961
lclavicle 1.86858e-014 1.82882e-014
lhumerus 13.4627 -29.2336 67.1334
lradius 75.5171
lwrist 84.4028
lhand -29.4928 5.37392
lfingers 7.12502
lthumb -2.8276 35.3349
rfemur -44.0042 2.5594 7.30773
rtibia 14.5456
rfoot -25.698 -21.4425
rtoes -25.4804
lfemur -19.088 15.2606 -31.4614
ltibia 64.4017
lfoot -37.3147 17.7619
ltoes -15.605
235
root 25.1628 15.4379 -25.7932 -4.27744 -17.4657 3.86111
lowerback 13.0425 -2.80995 -0.715244
upperback 14.7792 -3.84228 -3.0449
thorax 8.40132 -1.89897 -2.65719
lowerneck 10.2885 -2.27174 -2.31584
upperneck -11.5987 -1.92295 11.9671
head -5.03269 -1.68293 4.27487
rclavicle -1.07344e-014 2.66371e-014
rhumerus -43.9228 23.3348 -88.7323
rradius 62.1911
rwrist 4.22585
rhand -7.95639 -12.7742
rfingers 7.12502
rthumb 17.9508 -41.9657
lclavicle -1.07344e-014 2.66371e-014
lhumerus 13.4473 -29.3264 67.0703
lradius 75.5559
lwrist 84.4026
lhand -29.5948 5.36085
lfingers 7.12502
lthumb -2.92617 35.3205
rfemur -43.6879 2.55025 7.3002
rtibia 14.8584
rfoot -25.9017 -21.4144
rtoes -25.3333
lfemur -19.0934 15.3325 -31.4317
ltibia 64.7793
lfoot -37.3601 17.6015
ltoes -16.1944
236
root 25.1317 15.4195 -25.7309 -4.16723 -17.4355 3.95349
lowerback 12.9398 -2.76937 -0.760985
upperback 14.7446 -3.78642 -3.08763
thorax 8.41973 -1.87144 -2.68474
lowerneck 10.2409 -2.31748 -2.33123
upperneck -11.6016 -1.97712 12.057
head -5.02007 -1.71389 4.30864
rclavicle -6.75868e-015 6.36111e-015
rhumerus -43.8812 23.1789 -88.7107
rradius 62.2817
rwrist 4.21838
rhand -7.95889 -12.7738
rfingers 7.12502
rthumb 17.9484 -41.9656
lclavicle -6.75868e-015 6.36111e-015
lhumerus 13.4569 -29.402 66.9849
lradius 75.5942
lwrist 84.4019
lhand -29.6973 5.37191
lfingers 7.12502
lthumb -3.02516 35.3302
rfemur -43.4163 2.5701 7.30446
rtibia 15.1882
rfoot -26.0632 -21.3102
rtoes -25.157
lfemur -19.1313 15.4443 -31.4191
ltibia 65.1502
lfoot -37.4096 17.4725
ltoes -16.7735
237
root 25.1 15.4009 -25.6689 -4.03137 -17.457 4.03852
lowerback 12.8538 -2.72178 -0.815261
upperback 14.6947 -3.72303 -3.11838
thorax 8.41287 -1.8421 -2.69313
lowerneck 10.2153 -2.35286 -2.3803
upperneck -11.6232 -2.02105 12.1423
head -5.01718 -1.73915 4.34685
rclavicle -4.8901e-014 1.59028e-015
rhumerus -43.8655 23.0651 -88.6808
rradius 62.3849
rwrist 4.19082
rhand -7.96814 -12.7712
rfingers 7.12502
rthumb 17.9395 -41.9638
lclavicle -4.8901e-014 1.59028e-015
lhumerus 13.435 -29.4414 66.9317
lradius 75.633
lwrist 84.4005
lhand -29.7995 5.36834
lfingers 7.12502
lthumb -3.12379 35.3252
rfemur -43.1702 2.62957 7.32484
rtibia 15.4979
rfoot -26.1676 -21.1564
rtoes -24.9898
lfemur -19.1978 15.5895 -31.4016
ltibia 65.5159
lfoot -37.4678 17.3575
ltoes -17.3396
238
root 25.0682 15.3823 -25.607 -3.87641 -17.526 4.12357
lowerback 12.78 -2.67281 -0.874801
upperback 14.6337 -3.65894 -3.14596
thorax 8.38703 -1.81347 -2.69376
lowerneck 10.2068 -2.37563 -2.45287
upperneck -11.6611 -2.05104 12.2174
head -5.02299 -1.75679 4.38564
rclavicle -5.00937e-014 2.5842e-014
rhumerus -43.8671 23.0056 -88.653
rradius 62.4912
rwrist 4.14606
rhand -7.97746 -12.7721
rfingers 7.12502
rthumb 17.9305 -41.9656
lclavicle -5.00937e-014 2.5842e-014
lhumerus 13.383 -29.4402 66.9004
lradius 75.6733
lwrist 84.4013
lhand -29.9019 5.35554
lfingers 7.12502
lthumb -3.22276 35.3109
rfemur -42.9302 2.70426 7.36835
rtibia 15.7577
rfoot -26.2124 -20.9373
rtoes -24.8047
lfemur -19.283 15.761 -31.3868
ltibia 65.8721
lfoot -37.5408 17.2452
ltoes -17.8808
239
root 25.0358 15.3635 -25.5455 -3.69122 -17.6717 4.19847
lowerback 12.7095 -2.59965 -0.926493
upperback 14.5707 -3.56299 -3.17227
thorax 8.35785 -1.76843 -2.69881
lowerneck 10.1776 -2.40234 -2.50423
upperneck -11.7152 -2.08404 12.2754
head -5.03043 -1.77566 4.41565
rclavicle -1.11319e-014 1.07344e-014
rhumerus -43.8568 22.9531 -88.6215
rradius 62.5904
rwrist 4.09612
rhand -7.98927 -12.7866
rfingers 7.12502
rthumb 17.9192 -41.981
lclavicle -1.11319e-014 1.07344e-014
lhumerus 13.3468 -29.4283 66.8661
lradius 75.7128
lwrist 84.4022
lhand -30.002 5.37139
lfingers 7.12502
lthumb -3.31941 35.3253
rfemur -42.7083 2.78816 7.47333
rtibia 15.9437
rfoot -26.1891 -20.6529
rtoes -24.6417
lfemur -19.3997 15.9895 -31.3616
ltibia 66.2185
lfoot -37.6251 17.1334
ltoes -18.4169
